<svg width="279" height="70" viewBox="0 0 279 70" fill="none" xmlns="http://www.w3.org/2000/svg">
<path d="M111.963 15.6995L112.404 25.0987H111.284C111.068 23.4444 110.773 22.2607 110.399 21.5517C109.79 20.4081 108.979 19.5669 107.967 19.0242C106.954 18.4814 105.624 18.211 103.973 18.211H98.343V48.8321C98.343 51.2956 98.6086 52.8317 99.1378 53.4426C99.8847 54.2697 101.033 54.6843 102.587 54.6843H103.973V55.7779H87.0277V54.6843H88.4416C90.1311 54.6843 91.3294 54.1716 92.0363 53.1482C92.4677 52.5173 92.6854 51.0793 92.6854 48.8341V18.211H87.8825C86.0152 18.211 84.6892 18.3492 83.9044 18.6256C82.8819 19.0002 82.0072 19.7192 81.2823 20.7827C80.5553 21.8462 80.122 23.2862 79.9862 25.0967H78.8658L79.3371 15.6975H111.961L111.963 15.6995Z" fill="#026670"/>
<path d="M116.119 38.9002C116.099 42.9198 117.071 46.0722 119.036 48.3575C121.001 50.6427 123.31 51.7863 125.962 51.7863C127.729 51.7863 129.267 51.2996 130.573 50.3242C131.879 49.3488 132.976 47.6785 133.858 45.3152L134.771 45.906C134.358 48.6058 133.159 51.0633 131.176 53.2804C129.191 55.4975 126.707 56.605 123.719 56.605C120.478 56.605 117.702 55.3393 115.394 52.8077C113.085 50.2761 111.931 46.8714 111.931 42.5953C111.931 37.9648 113.115 34.3538 115.482 31.7641C117.848 29.1725 120.82 27.8787 124.396 27.8787C127.422 27.8787 129.908 28.8781 131.853 30.8789C133.798 32.8797 134.771 35.5535 134.771 38.9042H116.117L116.119 38.9002ZM116.119 37.1857H128.614C128.516 35.4513 128.309 34.2296 127.995 33.5206C127.504 32.417 126.773 31.5498 125.8 30.9189C124.828 30.2881 123.811 29.9736 122.751 29.9736C121.119 29.9736 119.661 30.6085 118.375 31.8803C117.089 33.1521 116.336 34.9206 116.121 37.1857H116.119Z" fill="#026670"/>
<path d="M146.266 27.9068V33.9954C148.525 29.9357 150.843 27.9068 153.222 27.9068C154.302 27.9068 155.197 28.2373 155.904 28.8962C156.611 29.5572 156.964 30.3202 156.964 31.1874C156.964 31.9565 156.708 32.6054 156.197 33.1382C155.686 33.6709 155.077 33.9353 154.37 33.9353C153.663 33.9353 152.912 33.5948 152.057 32.9159C151.203 32.2369 150.57 31.8964 150.156 31.8964C149.803 31.8964 149.419 32.0927 149.006 32.4873C148.121 33.2964 147.209 34.6263 146.266 36.4769V49.4511C146.266 50.9492 146.452 52.0808 146.825 52.8499C147.081 53.3827 147.532 53.8253 148.181 54.1798C148.83 54.5343 149.763 54.7125 150.981 54.7125V55.776H137.159V54.7125C138.535 54.7125 139.556 54.4962 140.225 54.0616C140.716 53.7472 141.06 53.2445 141.255 52.5535C141.353 52.219 141.403 51.2637 141.403 49.6875V39.1947C141.403 36.0423 141.339 34.1656 141.211 33.5648C141.084 32.9639 140.848 32.5253 140.504 32.2489C140.161 31.9726 139.734 31.8344 139.222 31.8344C138.613 31.8344 137.926 31.9826 137.159 32.277L136.864 31.2135L145.028 27.9028H146.266V27.9068Z" fill="#026670"/>
<path d="M166.364 27.9068V33.9954C168.623 29.9357 170.941 27.9068 173.32 27.9068C174.4 27.9068 175.295 28.2373 176.002 28.8962C176.709 29.5572 177.062 30.3202 177.062 31.1874C177.062 31.9565 176.807 32.6054 176.295 33.1382C175.784 33.6709 175.175 33.9353 174.468 33.9353C173.761 33.9353 173.01 33.5948 172.156 32.9159C171.301 32.2369 170.668 31.8964 170.254 31.8964C169.901 31.8964 169.518 32.0927 169.106 32.4873C168.221 33.2964 167.309 34.6263 166.366 36.4769V49.4511C166.366 50.9492 166.552 52.0808 166.925 52.8499C167.181 53.3827 167.632 53.8253 168.281 54.1798C168.93 54.5343 169.863 54.7125 171.081 54.7125V55.776H157.26V54.7125C158.636 54.7125 159.656 54.4962 160.325 54.0616C160.816 53.7472 161.16 53.2445 161.356 52.5535C161.453 52.219 161.503 51.2637 161.503 49.6875V39.1947C161.503 36.0423 161.439 34.1656 161.312 33.5648C161.184 32.9639 160.948 32.5253 160.605 32.2489C160.261 31.9726 159.834 31.8344 159.323 31.8344C158.714 31.8344 158.027 31.9826 157.26 32.277L156.964 31.2135L165.128 27.9028H166.366L166.364 27.9068Z" fill="#026670"/>
<path d="M193.861 51.8764C191.091 54.0234 189.352 55.2651 188.645 55.5996C187.585 56.0923 186.454 56.3387 185.256 56.3387C183.389 56.3387 181.853 55.6978 180.645 54.418C179.437 53.1382 178.832 51.4518 178.832 49.3649C178.832 48.045 179.127 46.9014 179.716 45.936C180.521 44.5961 181.921 43.3344 183.916 42.1527C185.909 40.9711 189.226 39.533 193.863 37.8386V36.7752C193.863 34.0754 193.436 32.2228 192.581 31.2193C191.727 30.2139 190.484 29.7112 188.853 29.7112C187.615 29.7112 186.632 30.0457 185.905 30.7166C185.158 31.3876 184.785 32.1547 184.785 33.0219L184.843 34.7363C184.843 35.6436 184.611 36.3425 184.15 36.8352C183.688 37.3279 183.083 37.5743 182.336 37.5743C181.59 37.5743 181.014 37.3179 180.553 36.8052C180.092 36.2925 179.86 35.5935 179.86 34.7062C179.86 33.0119 180.725 31.4557 182.454 30.0357C184.182 28.6177 186.61 27.9087 189.734 27.9087C192.13 27.9087 194.095 28.3133 195.627 29.1204C196.785 29.7313 197.64 30.6866 198.191 31.9864C198.544 32.8336 198.722 34.568 198.722 37.1877V46.3787C198.722 48.9603 198.772 50.5405 198.87 51.1233C198.968 51.7041 199.13 52.0947 199.355 52.291C199.581 52.4872 199.841 52.5874 200.136 52.5874C200.45 52.5874 200.725 52.5193 200.961 52.3811C201.374 52.1247 202.169 51.4057 203.347 50.2241V51.8784C201.147 54.8345 199.046 56.3126 197.041 56.3126C196.078 56.3126 195.311 55.9781 194.742 55.3072C194.173 54.6383 193.877 53.4947 193.857 51.8784L193.861 51.8764ZM193.861 49.9557V39.6412C190.894 40.8228 188.979 41.662 188.114 42.1527C186.562 43.0199 185.452 43.9252 184.783 44.8725C184.114 45.8179 183.78 46.8533 183.78 47.9749C183.78 49.3929 184.204 50.5705 185.048 51.5079C185.893 52.4432 186.866 52.9118 187.966 52.9118C189.46 52.9118 191.423 51.9265 193.859 49.9557H193.861Z" fill="#026670"/>
<path d="M213.371 33.6689C215.336 31.6981 216.494 30.5645 216.847 30.2701C217.732 29.5211 218.685 28.9402 219.705 28.5257C220.726 28.1111 221.738 27.9048 222.741 27.9048C224.43 27.9048 225.884 28.3975 227.102 29.3829C228.32 30.3682 229.135 31.7963 229.549 33.6689C231.572 31.3036 233.281 29.7534 234.677 29.0143C236.071 28.2753 237.507 27.9068 238.979 27.9068C240.45 27.9068 241.685 28.2753 242.795 29.0143C243.905 29.7534 244.784 30.9611 245.433 32.6354C245.864 33.779 246.082 35.5716 246.082 38.015V49.6594C246.082 51.3537 246.21 52.5174 246.465 53.1463C246.661 53.5809 247.025 53.9494 247.556 54.2538C248.085 54.5603 248.95 54.7125 250.148 54.7125V55.776H236.828V54.7125H237.387C238.545 54.7125 239.45 54.4862 240.099 54.0335C240.55 53.7191 240.874 53.2164 241.071 52.5254C241.149 52.1909 241.189 51.2356 241.189 49.6594V38.015C241.189 35.8079 240.924 34.2517 240.394 33.3444C239.628 32.0847 238.399 31.4538 236.712 31.4538C235.669 31.4538 234.625 31.7161 233.573 32.2369C232.522 32.7596 231.25 33.729 229.756 35.147L229.698 35.4714L229.756 36.7432V49.6594C229.756 51.512 229.86 52.6636 230.066 53.1182C230.271 53.5709 230.659 53.9514 231.23 54.2558C231.799 54.5623 232.772 54.7145 234.148 54.7145V55.778H220.504V54.7145C221.998 54.7145 223.024 54.5382 223.583 54.1817C224.143 53.8272 224.53 53.2945 224.748 52.5855C224.846 52.251 224.895 51.2756 224.895 49.6594V38.015C224.895 35.8079 224.572 34.2217 223.923 33.2563C223.058 31.9945 221.85 31.3656 220.298 31.3656C219.238 31.3656 218.185 31.6521 217.145 32.2229C215.513 33.0901 214.257 34.0654 213.373 35.149V49.6614C213.373 51.4339 213.494 52.5875 213.74 53.1202C213.986 53.653 214.349 54.0515 214.83 54.3179C215.312 54.5843 216.288 54.7165 217.762 54.7165V55.78H204.412V54.7165C205.65 54.7165 206.513 54.5843 207.004 54.3179C207.495 54.0515 207.869 53.6289 208.124 53.0461C208.38 52.4653 208.508 51.3377 208.508 49.6614V39.3168C208.508 36.3426 208.42 34.4199 208.242 33.5527C208.104 32.9018 207.889 32.4552 207.593 32.2068C207.298 31.9605 206.896 31.8383 206.385 31.8383C205.834 31.8383 205.177 31.9865 204.41 32.2809L203.968 31.2174L212.102 27.9068H213.371V33.6709V33.6689Z" fill="#026670"/>
<path d="M265.503 27.9067C269.589 27.9067 272.87 29.4629 275.347 32.5773C277.448 35.237 278.5 38.2913 278.5 41.7402C278.5 44.1636 277.921 46.617 276.761 49.1005C275.6 51.584 274.005 53.4547 271.972 54.7164C269.939 55.9762 267.674 56.6071 265.18 56.6071C261.112 56.6071 257.881 54.9808 255.484 51.7302C253.461 48.9924 252.449 45.9181 252.449 42.5093C252.449 40.0258 253.062 37.5583 254.29 35.1049C255.518 32.6514 257.134 30.8389 259.139 29.6672C261.142 28.4956 263.265 27.9087 265.503 27.9087V27.9067ZM264.589 29.8274C263.548 29.8274 262.502 30.1379 261.449 30.7587C260.399 31.3796 259.548 32.4692 258.901 34.0253C258.252 35.5815 257.928 37.5823 257.928 40.0258C257.928 43.9673 258.709 47.3661 260.271 50.2221C261.833 53.0801 263.892 54.5081 266.446 54.5081C268.351 54.5081 269.923 53.721 271.161 52.1428C272.399 50.5666 273.018 47.8568 273.018 44.0154C273.018 39.2086 271.986 35.4253 269.923 32.6654C268.527 30.7748 266.749 29.8274 264.589 29.8274Z" fill="#026670"/>
<path d="M45.8628 0.398142C45.9247 0.253939 45.8588 0.0877058 45.717 0.0236157C45.5732 -0.0384716 45.4054 0.0256185 45.3435 0.171824L42.2561 7.29384C38.6495 5.75367 34.6813 4.89847 30.5135 4.89847C13.9381 4.89647 0.5 18.3734 0.5 34.9968C0.5 47.264 7.82115 57.8129 18.3196 62.5014L15.2422 69.6014C15.1802 69.7456 15.2461 69.9139 15.3879 69.976C15.422 69.991 15.4587 69.9992 15.496 70C15.5332 70.0008 15.5703 69.9943 15.605 69.9807C15.6397 69.9671 15.6713 69.9468 15.6982 69.9209C15.725 69.895 15.7465 69.864 15.7614 69.8298L18.8887 62.6156C19.3421 62.8079 19.8014 62.9941 20.2647 63.1664L20.3825 62.8459C19.9272 62.6777 19.4739 62.4934 19.0245 62.3032L24.4245 49.8477C24.5983 49.9198 24.77 49.9939 24.9458 50.06L24.9637 50.066C24.9637 50.066 24.9777 50.072 24.9857 50.074C24.9897 50.074 24.9937 50.076 24.9977 50.078H25.0037C25.0097 50.08 25.0137 50.082 25.0197 50.084H25.0237C25.0276 50.084 25.0296 50.086 25.0336 50.088H25.0376C25.0376 50.088 25.0436 50.09 25.0476 50.092H25.0776C25.0776 50.092 25.0796 50.092 25.0816 50.094C25.0836 50.096 25.0836 50.094 25.0856 50.096H25.1115C25.1115 50.096 25.1155 50.096 25.1175 50.098H25.1275C25.1275 50.098 25.1315 50.098 25.1335 50.1C25.1355 50.102 25.1335 50.1 25.1355 50.1H25.1395C25.1395 50.1 25.1455 50.102 25.1475 50.104C25.1495 50.106 25.1495 50.104 25.1515 50.104H25.1555C25.1555 50.104 25.1634 50.106 25.1674 50.108H25.1714C25.1814 50.112 25.1914 50.116 25.2014 50.118C25.2114 50.12 25.2034 50.118 25.2054 50.118C25.4171 50.1921 25.6308 50.2622 25.8464 50.3283L25.9463 49.9999C25.463 49.8537 24.9857 49.6794 24.5184 49.4831L45.8628 0.398142ZM21.5848 34.9968C21.5848 30.0598 25.5908 26.0422 30.5135 26.0422C31.6918 26.0422 32.8161 26.2745 33.8446 26.6911L26.7311 43.1002C23.6956 41.6702 21.5848 38.5778 21.5848 34.9968ZM7.59548 34.9968C7.59548 34.6783 7.59948 34.3579 7.61146 34.0394C7.61745 33.8672 7.62744 33.695 7.63742 33.5227C7.8551 30.0198 8.89156 26.5709 10.643 23.5327C12.5901 20.1499 15.3979 17.2859 18.735 15.2731C22.2737 13.1401 26.3836 12.0005 30.5135 12.0005C33.6748 12.0005 36.6824 12.6574 39.4243 13.823C39.4243 13.823 36.6704 20.1759 36.6704 20.1739C36.7343 19.9556 33.7707 19.2807 33.4651 19.2226C31.2225 18.784 28.7481 18.8721 26.5374 19.4369C24.6327 19.9262 22.8345 20.7641 21.2333 21.9084C18.042 24.1876 15.7494 27.6264 14.8887 31.4618C14.6294 32.6215 14.4988 33.8063 14.4993 34.9948C14.4993 41.4999 18.3575 47.0978 23.9013 49.6233L21.1454 55.9783C21.1174 56.0444 18.6451 54.6604 18.4274 54.5242C17.5423 53.9716 16.6956 53.3593 15.8932 52.6917C14.2916 51.3578 12.8697 49.8076 11.6814 48.0952C9.04334 44.2938 7.61146 39.6433 7.59548 34.9968Z" fill="#026670"/>
<path d="M37.4253 49.1365L37.5751 49.445C37.5751 49.445 37.5791 49.443 37.5811 49.441C37.5831 49.441 37.5851 49.4389 37.589 49.4369H37.591C37.593 49.4369 37.595 49.4349 37.599 49.4329C37.599 49.4329 37.603 49.4329 37.605 49.4289H37.607C37.609 49.4289 37.611 49.4269 37.613 49.4249C37.615 49.4229 37.617 49.4249 37.619 49.4229H37.621C37.623 49.4229 37.625 49.4209 37.627 49.4189H37.629C37.629 49.4189 37.633 49.4189 37.635 49.4169H37.637C37.639 49.4169 37.641 49.4149 37.643 49.4129H37.645C37.645 49.4129 37.649 49.4129 37.649 49.4109H37.651C37.651 49.4109 37.6549 49.4089 37.6569 49.4069H37.6589C37.6589 49.4069 37.6629 49.4069 37.6649 49.4049H37.6669C37.6669 49.4049 37.6709 49.4049 37.6729 49.4029H37.6749C37.6769 49.4029 37.6789 49.4009 37.6809 49.3989H37.6829C37.6829 49.3989 37.6849 49.3989 37.6869 49.3969H37.6909C37.6909 49.3969 37.6949 49.3949 37.6969 49.3929H37.7009C37.7049 49.3929 37.7029 49.3929 37.7049 49.3909H37.7089C37.7089 49.3909 37.7129 49.3889 37.7149 49.3869H37.7189C37.7189 49.3869 37.7209 49.3869 37.7228 49.3849H37.7248C37.7248 49.3849 37.7288 49.3849 37.7308 49.3829H37.7348C37.7348 49.3829 37.7368 49.3829 37.7388 49.3809C37.7388 49.3809 37.7408 49.3809 37.7428 49.3789H37.7468C37.7468 49.3789 37.7488 49.3749 37.7508 49.3749C37.7508 49.3749 37.7528 49.3749 37.7548 49.3729C37.7548 49.3729 37.7588 49.3729 37.7588 49.3709H37.7708C37.7708 49.3709 37.7728 49.3669 37.7748 49.3669H37.7828C37.7828 49.3669 37.7868 49.3668 37.7887 49.3648H37.7967C37.7967 49.3648 37.8007 49.3648 37.8027 49.3628H37.8147C37.8147 49.3628 37.8187 49.3608 37.8207 49.3588H37.8327C37.8327 49.3588 37.8367 49.3568 37.8387 49.3548H37.8407C37.8407 49.3548 37.8427 49.3548 37.8447 49.3528H37.8487C37.8487 49.3528 37.8527 49.3488 37.8547 49.3488H37.8586C37.8586 49.3488 37.8606 49.3488 37.8626 49.3468C37.8626 49.3468 37.8646 49.3468 37.8666 49.3448C37.8666 49.3448 37.8706 49.3448 37.8726 49.3428H37.8746C37.8746 49.3428 37.8766 49.3428 37.8786 49.3408C37.8786 49.3408 37.8826 49.3408 37.8846 49.3388C37.8846 49.3388 37.8866 49.3388 37.8886 49.3368H37.8906C37.8926 49.3368 37.8946 49.3348 37.8966 49.3328H37.8986C37.8986 49.3328 37.9006 49.3328 37.9026 49.3308H37.9046C37.9066 49.3308 37.9086 49.3288 37.9106 49.3268H37.9126C37.9126 49.3268 37.9146 49.3268 37.9166 49.3248H37.9206C37.9226 49.3248 37.9245 49.3228 37.9265 49.3208H37.9285C37.9285 49.3208 37.9305 49.3208 37.9325 49.3188C37.9345 49.3188 37.9365 49.3168 37.9405 49.3148H37.9425C37.9465 49.3128 37.9525 49.3108 37.9565 49.3068H37.9585C37.9605 49.3068 37.9645 49.3048 37.9665 49.3028C37.9665 49.3028 37.9685 49.3028 37.9705 49.3008H37.9725C37.9745 49.3008 37.9765 49.2988 37.9805 49.2968H37.9825C37.9825 49.2968 37.9845 49.2968 37.9865 49.2947C37.9885 49.2927 37.9905 49.2907 37.9944 49.2887H37.9964C37.9964 49.2887 37.9984 49.2887 38.0004 49.2867H38.0024C38.0044 49.2867 38.0064 49.2847 38.0104 49.2827H38.0124C38.0164 49.2807 38.0224 49.2767 38.0264 49.2747H38.0284C38.0304 49.2747 38.0344 49.2727 38.0364 49.2707C38.0364 49.2707 38.0404 49.2707 38.0404 49.2687C38.0424 49.2687 38.0464 49.2667 38.0484 49.2647C38.0484 49.2647 38.0504 49.2647 38.0524 49.2627C38.0544 49.2607 38.0564 49.2587 38.0603 49.2567H38.0623C38.0623 49.2567 38.0643 49.2567 38.0663 49.2547C38.0683 49.2547 38.0723 49.2527 38.0743 49.2507C38.0783 49.2487 38.0843 49.2447 38.0883 49.2427H38.0903C38.0923 49.2427 38.0963 49.2387 38.0983 49.2387C38.0983 49.2387 38.1003 49.2387 38.1023 49.2367H38.1043C38.1063 49.2367 38.1083 49.2347 38.1123 49.2327H38.1143C38.1143 49.2327 38.1163 49.2327 38.1183 49.2307H38.1203C38.1223 49.2307 38.1243 49.2287 38.1263 49.2267H38.1282C38.1282 49.2267 38.1302 49.2267 38.1322 49.2246H38.1342C38.1362 49.2246 38.1382 49.2226 38.1422 49.2206H38.1442C38.1442 49.2206 38.1462 49.2206 38.1482 49.2186C38.1482 49.2186 38.1502 49.2186 38.1522 49.2166C38.1542 49.2166 38.1562 49.2166 38.1582 49.2126H38.1602C38.1602 49.2126 38.1622 49.2126 38.1642 49.2106C38.1642 49.2106 38.1682 49.2086 38.1702 49.2086H38.1742C38.1742 49.2086 38.1742 49.2046 38.1762 49.2046C38.1782 49.2046 38.1802 49.2046 38.1822 49.2006H38.1862C38.1862 49.2006 38.1882 49.2006 38.1902 49.1986H38.1941C38.1941 49.1986 38.1981 49.1966 38.2001 49.1946H38.2021C38.2021 49.1946 38.2041 49.1946 38.2061 49.1926H38.2081L38.2141 49.1866H38.2161C38.2161 49.1866 38.2181 49.1866 38.2201 49.1846C38.2201 49.1846 38.2221 49.1846 38.2241 49.1826C38.2261 49.1826 38.2281 49.1826 38.2301 49.1806H38.2341C38.2341 49.1806 38.2361 49.1806 38.2381 49.1786C38.2381 49.1786 38.2421 49.1766 38.2441 49.1746C38.2441 49.1746 38.2461 49.1746 38.2481 49.1726H38.2501C38.2501 49.1726 38.2541 49.1706 38.2561 49.1686C38.2561 49.1686 38.2581 49.1686 38.2601 49.1666H38.264C38.264 49.1666 38.264 49.1626 38.266 49.1626C38.268 49.1626 38.27 49.1606 38.272 49.1586H38.276C38.276 49.1586 38.278 49.1586 38.28 49.1566H38.284C38.284 49.1566 38.288 49.1546 38.29 49.1525H38.294C38.294 49.1525 38.296 49.1525 38.298 49.1505C38.298 49.1505 38.3 49.1505 38.302 49.1485C38.302 49.1485 38.306 49.1465 38.308 49.1445H38.312C38.312 49.1445 38.314 49.1445 38.316 49.1425C38.316 49.1425 38.32 49.1405 38.322 49.1385H38.326C38.326 49.1385 38.3279 49.1385 38.3299 49.1365H38.3339L38.3399 49.1325C38.3399 49.1325 38.3419 49.1325 38.3439 49.1305H38.3479C38.3479 49.1305 38.3519 49.1305 38.3519 49.1285C38.3519 49.1285 38.3539 49.1285 38.3559 49.1265H38.3599C38.3599 49.1265 38.3619 49.1265 38.3639 49.1245C38.3639 49.1245 38.3679 49.1245 38.3679 49.1225C38.3679 49.1225 38.3699 49.1225 38.3719 49.1205H38.3759C38.3759 49.1205 38.3779 49.1205 38.3799 49.1185C38.3799 49.1185 38.3819 49.1185 38.3839 49.1165C38.3839 49.1165 38.3859 49.1165 38.3879 49.1145H38.3919C38.3919 49.1145 38.3959 49.1125 38.3978 49.1105H38.4058C38.4058 49.1105 38.4058 49.1065 38.4098 49.1065C38.4098 49.1065 38.4138 49.1045 38.4158 49.1025H38.4178C38.4178 49.1025 38.4198 49.1025 38.4218 49.1005H38.4238C38.4258 49.1005 38.4278 49.0985 38.4298 49.0965H38.4318C38.4318 49.0965 38.4338 49.0965 38.4358 49.0945C38.4358 49.0945 38.4378 49.0945 38.4398 49.0925C38.4398 49.0925 38.4438 49.0925 38.4458 49.0905H38.4478C38.4478 49.0905 38.4518 49.0905 38.4518 49.0885C38.4518 49.0885 38.4538 49.0885 38.4558 49.0865C38.4558 49.0865 38.4578 49.0865 38.4598 49.0845H38.4618C38.4618 49.0845 38.4657 49.0824 38.4677 49.0804H38.4717C38.4717 49.0804 38.4737 49.0804 38.4757 49.0784H38.4777C38.4797 49.0784 38.4817 49.0764 38.4837 49.0744H38.4857C38.4857 49.0744 38.4897 49.0744 38.4917 49.0724H38.4937C38.4957 49.0724 38.4977 49.0704 38.4997 49.0684H38.5017C38.5017 49.0684 38.5057 49.0684 38.5057 49.0664H38.5077C38.5097 49.0664 38.5117 49.0644 38.5137 49.0624H38.5157C38.5157 49.0624 38.5197 49.0604 38.5217 49.0584H38.5237C38.5237 49.0584 38.5277 49.0564 38.5297 49.0544H38.5316C38.5316 49.0544 38.5356 49.0524 38.5376 49.0504H38.5396C38.5396 49.0504 38.5436 49.0484 38.5456 49.0464H38.5476C38.5496 49.0464 38.5516 49.0444 38.5536 49.0424H38.5556C38.5556 49.0424 38.5596 49.0404 38.5616 49.0384H38.5636C38.5656 49.0384 38.5676 49.0364 38.5696 49.0344C38.5696 49.0344 38.5736 49.0324 38.5756 49.0304C38.5776 49.0304 38.5796 49.0284 38.5816 49.0264H38.5836C38.5836 49.0264 38.5876 49.0244 38.5896 49.0224C38.5916 49.0224 38.5936 49.0204 38.5956 49.0184H38.5976C38.5995 49.0184 38.6015 49.0164 38.6035 49.0144C38.6055 49.0144 38.6075 49.0124 38.6095 49.0103C38.6115 49.0103 38.6135 49.0083 38.6155 49.0063C38.6155 49.0063 38.6195 49.0043 38.6215 49.0023L38.6275 48.9983C38.6275 48.9983 38.6315 48.9963 38.6335 48.9943C38.6355 48.9923 38.6375 48.9903 38.6395 48.9903C38.6415 48.9903 38.6435 48.9883 38.6455 48.9863C38.6475 48.9863 38.6495 48.9843 38.6535 48.9823C38.6575 48.9803 38.6635 48.9763 38.6674 48.9743C38.6694 48.9743 38.6714 48.9723 38.6754 48.9703C38.6774 48.9703 38.6794 48.9683 38.6834 48.9663C38.6854 48.9663 38.6874 48.9643 38.6914 48.9623C38.6954 48.9603 38.6954 48.9583 38.6974 48.9583C38.6994 48.9583 38.7014 48.9563 38.7054 48.9543C38.7074 48.9543 38.7094 48.9523 38.7114 48.9503C38.7134 48.9503 38.7154 48.9483 38.7194 48.9463C38.7234 48.9443 38.7294 48.9402 38.7333 48.9362C38.7373 48.9322 38.7433 48.9302 38.7493 48.9262C38.7513 48.9262 38.7553 48.9222 38.7573 48.9222C38.7593 48.9222 38.7633 48.9182 38.7653 48.9182C38.7673 48.9182 38.7713 48.9142 38.7733 48.9142C38.7753 48.9142 38.7833 48.9082 38.7893 48.9042C38.7953 48.9002 38.7993 48.8982 38.8052 48.8942C38.8112 48.8902 38.8152 48.8882 38.8212 48.8842C38.8272 48.8802 38.8312 48.8782 38.8372 48.8742C39.0868 48.7199 39.3325 48.5597 39.5741 48.3935L39.3784 48.1111C38.7335 48.557 38.0566 48.9547 37.3534 49.3008L37.4253 49.1365Z" fill="#026670"/>
<path d="M32.9599 50.5405L33.0118 50.8809C33.1696 50.8569 33.3233 50.8309 33.4791 50.8008C33.6349 50.7708 33.4831 50.8008 33.4851 50.8008C33.4891 50.8008 33.4931 50.8008 33.4971 50.7988C33.5011 50.7968 33.5011 50.7988 33.5031 50.7988C33.5071 50.7988 33.5111 50.7988 33.5151 50.7968H33.6509C33.6548 50.7968 33.6588 50.7968 33.6628 50.7948C33.6668 50.7928 33.6648 50.7948 33.6668 50.7948C33.6688 50.7948 33.6788 50.7928 33.6848 50.7908C34.242 50.6786 34.7892 50.5384 35.3224 50.3702L35.2205 50.0417C34.4733 50.2761 33.7096 50.4542 32.9359 50.5745L32.9599 50.5405Z" fill="#026670"/>
<path d="M41.2756 46.4688L41.5112 46.7191C42.0944 46.1703 42.6376 45.5775 43.1328 44.9486L42.8632 44.7363C42.3799 45.3512 41.8447 45.934 41.2756 46.4708V46.4688Z" fill="#026670"/>
<path d="M45.4254 29.0262C45.2826 28.6704 45.1274 28.3197 44.9601 27.9748C44.9601 27.9748 44.9541 27.9627 44.9521 27.9587L44.9441 27.9427V27.9387C44.9441 27.9347 44.9401 27.9307 44.9381 27.9267V27.9227C44.9361 27.9167 44.9322 27.9127 44.9302 27.9067C44.9282 27.9007 44.9302 27.9027 44.9302 27.9027C44.9302 27.8987 44.9262 27.8946 44.9242 27.8906V27.8866C44.9222 27.8806 44.9182 27.8766 44.9162 27.8706C44.9142 27.8646 44.9102 27.8586 44.9082 27.8546V27.8506C44.9082 27.8466 44.9042 27.8426 44.9022 27.8386V27.8306L44.8962 27.8185V27.8145C44.8962 27.8105 44.8922 27.8065 44.8902 27.8045V27.8005C44.8902 27.7965 44.8862 27.7925 44.8842 27.7885C44.8822 27.7845 44.8842 27.7865 44.8842 27.7845V27.7805C44.8842 27.7805 44.8822 27.7745 44.8802 27.7725V27.7685C44.8802 27.7645 44.8762 27.7625 44.8742 27.7585V27.7525C44.8742 27.7525 44.8742 27.7484 44.8722 27.7464V27.7404C44.8722 27.7404 44.8722 27.7364 44.8702 27.7344V27.7244L44.8663 27.7164V27.6944C44.8663 27.6944 44.8662 27.6904 44.8643 27.6884V27.6603C44.8643 27.6603 44.8643 27.6583 44.8623 27.6563V27.6483C44.8623 27.6483 44.8623 27.6443 44.8603 27.6423V27.6323C44.8603 27.6323 44.8603 27.6303 44.8583 27.6283C44.8583 27.6283 44.8583 27.6263 44.8563 27.6243V27.6203C44.8563 27.6203 44.8563 27.6183 44.8543 27.6163C44.8543 27.6163 44.8543 27.6123 44.8523 27.6123V27.6042C44.8523 27.6042 44.8523 27.6002 44.8503 27.6002C44.8503 27.6002 44.8503 27.5982 44.8483 27.5962C44.8483 27.5962 44.8483 27.5942 44.8463 27.5922C44.8463 27.5882 44.8423 27.5862 44.8403 27.5822C44.8403 27.5822 44.8403 27.5802 44.8383 27.5782C44.8383 27.5782 44.8383 27.5762 44.8363 27.5742C44.8363 27.5742 44.8363 27.5702 44.8343 27.5682C44.8343 27.5682 44.8343 27.5662 44.8323 27.5642C44.8323 27.5642 44.8323 27.5622 44.8303 27.5602C44.8303 27.5562 44.8263 27.5542 44.8243 27.5502C44.8243 27.5502 44.8243 27.5482 44.8223 27.5462C44.8203 27.5402 44.8163 27.5361 44.8143 27.5301C44.8123 27.5241 44.8083 27.5201 44.8063 27.5141C44.8043 27.5081 44.8003 27.5041 44.7984 27.4981C44.6971 27.3083 44.5919 27.1207 44.4828 26.9353L44.1873 27.1095C44.5827 27.7845 44.9322 28.4955 45.2217 29.2205L45.5393 29.0923L45.4254 29.0262Z" fill="#026670"/>
<path d="M45.8588 38.4074L46.1943 38.4815C46.2522 38.2211 46.3021 37.9588 46.346 37.6944C46.39 37.43 46.346 37.6904 46.346 37.6904C46.346 37.6904 46.346 37.6804 46.348 37.6764C46.35 37.6724 46.348 37.6724 46.348 37.6724C46.348 37.6684 46.348 37.6643 46.35 37.6583V37.6543C46.35 37.6543 46.35 37.6463 46.352 37.6403C46.354 37.6343 46.352 37.6383 46.352 37.6363V36.8172C46.372 36.6229 46.388 36.4266 46.4019 36.2303L46.0605 36.2063C46.0085 36.9894 45.8967 37.7725 45.7289 38.5356L45.8588 38.4074Z" fill="#026670"/>
<path d="M46.1763 33.723L46.5178 33.6949C46.4519 32.8858 46.3281 32.0907 46.1464 31.3196L45.8129 31.3977C45.9906 32.1588 46.1124 32.9399 46.1763 33.723Z" fill="#026670"/>
<path d="M30.5514 50.7248C29.7906 50.7248 29.0257 50.6687 28.2788 50.5605L28.2289 50.901C28.5544 50.9491 28.8839 50.9871 29.2174 51.0132C29.2334 51.0132 29.2514 51.0152 29.2673 51.0172C29.2833 51.0192 29.2753 51.0172 29.2793 51.0172H30.4236V50.6727H30.3537L30.5514 50.7248Z" fill="#026670"/>
<path d="M38.0384 20.7947C37.8247 20.6806 37.607 20.5724 37.3874 20.4683L37.2416 20.7787C37.9465 21.1132 38.6335 21.5037 39.2826 21.9403L39.4743 21.6539C39.3285 21.5558 39.1807 21.4597 39.0309 21.3655C39.0269 21.3615 39.0209 21.3595 39.0169 21.3555C39.013 21.3515 39.007 21.3495 39.003 21.3455C38.997 21.3415 38.993 21.3395 38.989 21.3355C38.981 21.3295 38.973 21.3255 38.965 21.3195C38.961 21.3175 38.955 21.3135 38.951 21.3114C38.947 21.3094 38.9411 21.3054 38.9371 21.3034L38.9231 21.2954C38.9211 21.2954 38.9171 21.2914 38.9151 21.2914C38.9151 21.2914 38.9131 21.2914 38.9111 21.2894C38.9091 21.2894 38.9071 21.2874 38.9031 21.2854H38.9011C38.9011 21.2854 38.8991 21.2854 38.8971 21.2834C38.8951 21.2814 38.8931 21.2794 38.8891 21.2774H38.8871C38.8871 21.2774 38.8851 21.2774 38.8831 21.2754C38.8831 21.2754 38.8811 21.2754 38.8791 21.2734C38.8791 21.2734 38.8752 21.2714 38.8732 21.2694H38.8712C38.8692 21.2694 38.8652 21.2654 38.8632 21.2634C38.8612 21.2614 38.8612 21.2614 38.8592 21.2614H38.8572L38.8512 21.2554H38.8492C38.8492 21.2554 38.8472 21.2554 38.8452 21.2534H38.8432L38.8372 21.2474H38.8352C38.8352 21.2474 38.8332 21.2474 38.8312 21.2454H38.8292C38.8272 21.2454 38.8252 21.2434 38.8232 21.2413H38.8212C38.8212 21.2413 38.8192 21.2413 38.8172 21.2393H38.8132C38.8113 21.2393 38.8093 21.2373 38.8073 21.2353H38.8053C38.8053 21.2353 38.8033 21.2353 38.8013 21.2333C38.8013 21.2333 38.7973 21.2313 38.7953 21.2293C38.7953 21.2293 38.7933 21.2293 38.7913 21.2273H38.7873C38.7873 21.2273 38.7833 21.2253 38.7813 21.2233C38.7813 21.2233 38.7793 21.2233 38.7773 21.2213C38.7773 21.2213 38.7753 21.2213 38.7733 21.2193H38.7713L38.7653 21.2133C38.7653 21.2133 38.7633 21.2133 38.7613 21.2113H38.7573C38.7573 21.2113 38.7553 21.2113 38.7533 21.2093C38.7533 21.2093 38.7493 21.2093 38.7493 21.2073C38.7493 21.2073 38.7473 21.2073 38.7453 21.2053C38.7453 21.2053 38.7434 21.2053 38.7414 21.2033C38.7414 21.2033 38.7394 21.2033 38.7374 21.2013L38.7334 21.1993C38.7334 21.1993 38.7314 21.1993 38.7294 21.1973H38.7254C38.7254 21.1973 38.7214 21.1953 38.7194 21.1933H38.7174C38.7174 21.1933 38.7154 21.1933 38.7134 21.1913H38.7114C38.7114 21.1913 38.7074 21.1893 38.7054 21.1873H38.7014C38.6974 21.1873 38.6994 21.1873 38.6974 21.1853H38.6934C38.6934 21.1853 38.6894 21.1833 38.6874 21.1813H38.6834C38.6834 21.1813 38.6814 21.1813 38.6794 21.1793C38.6794 21.1793 38.6775 21.1793 38.6755 21.1773C38.6755 21.1773 38.6715 21.1773 38.6715 21.1753H38.6675C38.6675 21.1753 38.6635 21.1753 38.6635 21.1733C38.6635 21.1733 38.6615 21.1733 38.6595 21.1713C38.6595 21.1713 38.6575 21.1712 38.6555 21.1692H38.6535C38.6535 21.1692 38.6495 21.1672 38.6475 21.1652H38.6455C38.6455 21.1652 38.6435 21.1652 38.6415 21.1632H38.6375L38.6315 21.1592H38.6295C38.6295 21.1592 38.6275 21.1592 38.6255 21.1572H38.6235C38.6235 21.1572 38.6195 21.1552 38.6175 21.1532H38.6135C38.6135 21.1532 38.6115 21.1532 38.6096 21.1512C38.6076 21.1492 38.6076 21.1512 38.6056 21.1492C38.6056 21.1492 38.6036 21.1492 38.6016 21.1472H38.5976C38.5976 21.1472 38.5936 21.1472 38.5936 21.1452C38.5936 21.1452 38.5916 21.1452 38.5896 21.1432C38.5896 21.1432 38.5856 21.1432 38.5856 21.1412H38.5836C38.5836 21.1412 38.5796 21.1392 38.5776 21.1372H38.5736C38.5736 21.1372 38.5716 21.1372 38.5696 21.1352H38.5676C38.5676 21.1352 38.5636 21.1332 38.5616 21.1312H38.5596C38.5596 21.1312 38.5576 21.1312 38.5556 21.1292H38.5536C38.5536 21.1292 38.5496 21.1272 38.5476 21.1252H38.5456C38.5456 21.1252 38.5436 21.1212 38.5417 21.1212H38.5397C38.5397 21.1212 38.5357 21.1192 38.5337 21.1172H38.5317C38.5317 21.1172 38.5297 21.1172 38.5277 21.1152C38.5277 21.1152 38.5257 21.1152 38.5237 21.1132C38.5237 21.1132 38.5197 21.1132 38.5197 21.1112H38.5157C38.5157 21.1112 38.5117 21.1112 38.5097 21.1092H38.5017L38.4997 21.1052C38.4977 21.1052 38.4957 21.1032 38.4937 21.1012H38.4917C38.4917 21.1012 38.4897 21.1012 38.4877 21.0991H38.4837C38.4837 21.0991 38.4797 21.0971 38.4777 21.0951H38.4757C38.4757 21.0951 38.4738 21.0951 38.4718 21.0931H38.4698C38.4698 21.0931 38.4658 21.0911 38.4638 21.0891H38.4598C38.4598 21.0891 38.4578 21.0891 38.4558 21.0871C38.4558 21.0871 38.4538 21.0871 38.4518 21.0851C38.4518 21.0851 38.4478 21.0851 38.4478 21.0831H38.4438C38.4438 21.0831 38.4418 21.0831 38.4398 21.0811C38.4398 21.0811 38.4378 21.0811 38.4358 21.0791C38.4358 21.0791 38.4338 21.0791 38.4318 21.0771H38.4298C38.4298 21.0771 38.4258 21.0771 38.4238 21.0751C38.4238 21.0751 38.4218 21.0751 38.4198 21.0731C38.4198 21.0731 38.4178 21.0731 38.4158 21.0711C38.4138 21.0691 38.4158 21.0711 38.4118 21.0711C38.4118 21.0711 38.4078 21.0691 38.4059 21.0671H38.4019C38.4019 21.0671 38.3999 21.0671 38.3979 21.0651H38.3959C38.3939 21.0651 38.3919 21.0631 38.3899 21.0611H38.3879C38.3879 21.0611 38.3859 21.0611 38.3839 21.0591H38.3799L38.3739 21.0551H38.3699C38.3699 21.0551 38.3679 21.0551 38.3659 21.0531C38.3659 21.0531 38.3619 21.0531 38.3619 21.0511C38.3619 21.0511 38.3599 21.0511 38.3579 21.0491H38.3539C38.3539 21.0491 38.3519 21.0491 38.3499 21.0471C38.3499 21.0471 38.3459 21.0471 38.3459 21.0451C38.3459 21.0451 38.3439 21.0451 38.3419 21.0431H38.338C38.338 21.0431 38.334 21.0431 38.334 21.0411C38.334 21.0411 38.332 21.0411 38.33 21.0391H38.322C38.322 21.0391 38.318 21.0371 38.316 21.0351H38.304C38.304 21.0351 38.3 21.0331 38.298 21.0311C38.298 21.0311 38.296 21.0311 38.294 21.0291H38.29C38.288 21.0291 38.286 21.027 38.284 21.025H38.28C38.28 21.025 38.278 21.025 38.276 21.023H38.2721C38.2721 21.023 38.2681 21.021 38.2661 21.019H38.2621C38.2621 21.019 38.2601 21.019 38.2581 21.017H38.2541C38.2521 21.017 38.2501 21.015 38.2481 21.013H38.2461C38.2461 21.013 38.2441 21.013 38.2421 21.011C38.2421 21.011 38.2401 21.011 38.2381 21.009C38.2381 21.009 38.2341 21.009 38.2341 21.007H38.2321C38.2301 21.007 38.2281 21.005 38.2261 21.003H38.2221C38.2221 21.003 38.2201 21.003 38.2181 21.001H38.2161C38.2141 21.001 38.2121 20.999 38.2101 20.997H38.2081L38.2042 20.993H38.2022C38.2002 20.993 38.1982 20.991 38.1942 20.989H38.1922C38.1922 20.989 38.1902 20.989 38.1882 20.987H38.1862C38.1842 20.987 38.1822 20.985 38.1782 20.983H38.1762L38.1722 20.979C38.1682 20.979 38.1662 20.975 38.1622 20.975C38.1582 20.973 38.1522 20.969 38.1482 20.967C38.1442 20.967 38.1422 20.963 38.1382 20.961C38.1382 20.961 38.1363 20.961 38.1343 20.959C38.1303 20.9569 38.1243 20.9529 38.1183 20.9509C38.1143 20.9509 38.1123 20.9469 38.1083 20.9449C38.1023 20.9429 38.0983 20.9389 38.0923 20.9369C38.0863 20.9349 38.0823 20.9309 38.0763 20.9289L38.0384 20.7947Z" fill="#026670"/>
<path d="M42.7354 25.1087L43.001 24.8924C42.989 24.8764 42.9751 24.8604 42.9611 24.8444C42.9471 24.8283 42.9531 24.8344 42.9491 24.8303C42.9446 24.8261 42.9406 24.8214 42.9371 24.8163C42.9327 24.8125 42.9293 24.8077 42.9271 24.8023C42.9251 24.7983 42.9231 24.7963 42.9211 24.7943L42.9171 24.7903C42.9171 24.7903 42.9131 24.7843 42.9091 24.7823C42.9052 24.7783 42.9012 24.7743 42.8992 24.7703C42.8952 24.7663 42.8912 24.7623 42.8892 24.7582C42.8892 24.7562 42.8852 24.7522 42.8832 24.7502L42.8792 24.7462C42.8792 24.7442 42.8752 24.7402 42.8732 24.7382L42.8692 24.7342C42.8672 24.7322 42.8652 24.7282 42.8632 24.7262C42.8592 24.7222 42.8572 24.7182 42.8532 24.7142C42.8492 24.7102 42.8492 24.7082 42.8472 24.7062C42.8472 24.7062 42.8472 24.7042 42.8432 24.7022C42.8432 24.7002 42.8393 24.6982 42.8373 24.6962C42.8373 24.6962 42.8373 24.6942 42.8333 24.6922C42.8333 24.6902 42.8293 24.6881 42.8273 24.6861C42.8253 24.6841 42.8213 24.6761 42.8173 24.6721V24.6701C42.8173 24.6701 42.8153 24.6661 42.8133 24.6641L42.8113 24.6621C42.8113 24.6621 42.8113 24.6601 42.8093 24.6581L42.8073 24.6561C42.8073 24.6561 42.8053 24.6521 42.8033 24.6501L42.8013 24.6481C42.8013 24.6481 42.8013 24.6461 42.7993 24.6441L42.7973 24.6421C42.7973 24.6421 42.7953 24.6381 42.7933 24.6381L42.7913 24.6361C42.7913 24.6361 42.7913 24.6341 42.7893 24.6321C42.7893 24.6321 42.7893 24.6301 42.7873 24.6281C42.7873 24.6281 42.7853 24.6241 42.7833 24.6241C42.7833 24.6241 42.7833 24.6221 42.7813 24.6201L42.7793 24.618C42.7793 24.618 42.7773 24.614 42.7753 24.614L42.7733 24.61C42.7733 24.61 42.7733 24.608 42.7714 24.606C42.7714 24.606 42.7694 24.604 42.7694 24.602C42.7694 24.602 42.7674 24.598 42.7654 24.598L42.7634 24.594C42.7634 24.594 42.7634 24.592 42.7614 24.59L42.7574 24.586L42.7534 24.582C42.7534 24.582 42.7534 24.58 42.7514 24.58L42.7474 24.576L42.7434 24.572C42.7434 24.572 42.7434 24.57 42.7414 24.568L42.7394 24.566C42.7394 24.566 42.7374 24.562 42.7354 24.56L42.7334 24.558L42.7294 24.554L42.7274 24.552C42.7274 24.552 42.7234 24.5479 42.7234 24.5459V24.5439L42.7194 24.5399V24.5379C42.7194 24.5379 42.7154 24.5339 42.7154 24.5319V24.5299C42.7154 24.5299 42.7134 24.5259 42.7114 24.5259V24.5239C42.7114 24.5239 42.7094 24.5199 42.7074 24.5199V24.5179C42.7074 24.5179 42.7035 24.5139 42.7035 24.5119C42.7035 24.5119 42.7015 24.5079 42.6995 24.5079C42.6995 24.5079 42.6955 24.5039 42.6955 24.5019C42.6955 24.5019 42.6935 24.4979 42.6915 24.4979C42.6915 24.4979 42.6875 24.4939 42.6875 24.4919V24.4899C42.6875 24.4899 42.6855 24.4859 42.6835 24.4859L42.6775 24.4799C42.6775 24.4799 42.6735 24.4758 42.6735 24.4738C42.6735 24.4738 42.6715 24.4698 42.6695 24.4678V24.4658C42.6695 24.4658 42.6655 24.4618 42.6655 24.4598C42.6655 24.4598 42.6635 24.4558 42.6615 24.4538C42.6615 24.4518 42.6575 24.4498 42.6555 24.4478C42.6555 24.4478 42.6515 24.4438 42.6515 24.4418C42.6515 24.4398 42.6475 24.4378 42.6455 24.4358C42.6455 24.4338 42.6415 24.4318 42.6395 24.4298L42.6336 24.4238C42.6336 24.4218 42.6296 24.4198 42.6276 24.4178L42.6216 24.4118C42.6216 24.4098 42.6176 24.4078 42.6156 24.4058L42.6096 24.3997C42.6096 24.3997 42.6056 24.3957 42.6036 24.3917C42.5991 24.3875 42.5951 24.3828 42.5916 24.3777C42.5916 24.3777 42.5836 24.3677 42.5796 24.3637L42.5677 24.3497C42.5677 24.3497 42.5557 24.3357 42.5497 24.3276C42.1922 23.9291 41.8168 23.5465 41.4214 23.186L41.1897 23.4404C41.7668 23.9691 42.308 24.5459 42.7993 25.1528L42.7354 25.1087Z" fill="#026670"/>
<path d="M45.3935 41.0593V41.0232C45.3935 41.0232 45.3935 41.0192 45.3955 41.0172V41.0092C45.3955 41.0052 45.3975 41.0032 45.3995 40.9992V40.9892C45.3995 40.9852 45.4015 40.9812 45.4035 40.9792C45.4055 40.9732 45.4075 40.9692 45.4095 40.9632C45.4114 40.9572 45.4095 40.9592 45.4114 40.9572L45.4714 40.8009L45.1518 40.6768C44.8722 41.4058 44.5328 42.1208 44.1453 42.8017L44.4429 42.972C44.5739 42.7415 44.6991 42.5078 44.8183 42.271C44.8183 42.271 44.8243 42.259 44.8263 42.255C44.8323 42.243 44.8383 42.2289 44.8443 42.2169C44.8503 42.2049 44.8563 42.1909 44.8623 42.1789C44.9901 41.9205 45.1119 41.6601 45.2257 41.3938C45.2297 41.3817 45.2357 41.3697 45.2397 41.3597C45.2537 41.3277 45.2677 41.2956 45.2796 41.2636C45.2916 41.2315 45.2836 41.2516 45.2876 41.2456C45.2916 41.2395 45.2876 41.2416 45.2876 41.2416C45.2896 41.2355 45.2916 41.2295 45.2956 41.2255C45.2996 41.2215 45.2956 41.2215 45.2956 41.2215C45.2956 41.2215 45.2976 41.2155 45.2996 41.2135C45.3016 41.2115 45.2996 41.2115 45.2996 41.2095V41.2055C45.2996 41.2015 45.3036 41.1975 45.3036 41.1935V41.1895C45.3036 41.1855 45.3076 41.1815 45.3076 41.1775V41.1694C45.3076 41.1674 45.3076 41.1654 45.3096 41.1634V41.1554C45.3096 41.1514 45.3116 41.1494 45.3136 41.1454V41.0953L45.3935 41.0593Z" fill="#026670"/>
<path d="M57.7032 46.7391L58.0168 46.8753C58.1785 46.5008 58.3323 46.1223 58.4781 45.7397C58.4841 45.7257 58.4881 45.7117 58.4941 45.6977C58.4941 45.6937 58.4961 45.6917 58.4981 45.6877C58.5001 45.6796 58.5041 45.6736 58.5061 45.6676C58.5061 45.6636 58.5061 45.6616 58.51 45.6576V45.6556C58.51 45.6536 58.51 45.6496 58.512 45.6476V45.6456C58.512 45.6416 58.514 45.6396 58.516 45.6356C58.5175 45.6285 58.5202 45.6217 58.524 45.6156V45.6135C58.524 45.6135 58.524 45.6075 58.526 45.6055V45.6015C58.526 45.6015 58.526 45.5955 58.528 45.5955V45.5915C58.528 45.5895 58.528 45.5855 58.53 45.5835C58.53 45.5795 58.532 45.5775 58.534 45.5735V45.5695C58.534 45.5695 58.534 45.5655 58.536 45.5635V45.5595C58.536 45.5595 58.536 45.5555 58.538 45.5535V45.5394C58.538 45.5354 58.538 45.5334 58.542 45.5314V45.5014C58.542 45.5014 58.542 45.4974 58.544 45.4954V45.4934C58.544 45.4894 58.548 45.4834 58.55 45.4794C58.552 45.4754 58.55 45.4733 58.552 45.4713V45.4693C58.552 45.4673 58.552 45.4653 58.554 45.4633V45.4613C58.554 45.4593 58.554 45.4573 58.556 45.4533C58.558 45.4493 58.562 45.4353 58.566 45.4273C58.57 45.4193 58.566 45.4213 58.568 45.4193C58.57 45.4173 58.568 45.4133 58.57 45.4093C58.6618 45.1569 58.7517 44.9046 58.8376 44.6502L58.514 44.54C58.2617 45.2863 57.9792 46.0219 57.6673 46.7451L57.7032 46.7391Z" fill="#026670"/>
<path d="M22.5333 63.8952C22.6052 63.9153 22.6751 63.9353 22.747 63.9533C22.757 63.9573 22.769 63.9593 22.781 63.9633H22.8129C22.8149 63.9633 22.8169 63.9633 22.8209 63.9653H22.8349C22.8349 63.9653 22.8409 63.9653 22.8429 63.9673H22.8449C22.8529 63.9673 22.8588 63.9713 22.8668 63.9733C22.8708 63.9733 22.8728 63.9733 22.8768 63.9753C22.8808 63.9753 22.8828 63.9753 22.8868 63.9773C23.4739 64.1336 24.0691 64.2718 24.6722 64.3919C24.6762 64.3919 24.6801 64.3919 24.6821 64.3939L24.7161 64.3999H24.7261C24.7301 64.3999 24.7321 64.3999 24.7361 64.4019C24.7401 64.4039 24.7441 64.4019 24.748 64.4039C24.752 64.4059 24.754 64.4039 24.758 64.4059H24.778C24.782 64.4059 24.784 64.4059 24.788 64.4079H24.8419L24.9058 64.0735C24.137 63.9253 23.3661 63.743 22.6112 63.5327L22.5193 63.8612L22.5333 63.8952Z" fill="#026670"/>
<path d="M59.215 42.2668L59.5445 42.3509L59.6464 41.9363C59.6484 41.9243 59.6524 41.9123 59.6544 41.9023V41.8422C59.6544 41.8382 59.6544 41.8362 59.6564 41.8342C59.6564 41.8302 59.6564 41.8282 59.6584 41.8242C59.6584 41.8202 59.6583 41.8182 59.6603 41.8142C59.6603 41.8102 59.6603 41.8082 59.6623 41.8042C59.6643 41.7921 59.6663 41.7821 59.6703 41.7701C59.7682 41.3475 59.8561 40.9209 59.9339 40.4903V40.4803C59.9359 40.4683 59.9379 40.4583 59.9399 40.4483V40.3762C59.9399 40.3762 59.9399 40.3641 59.9419 40.3601V40.3361L59.9479 40.3L59.9959 40.0217L59.6603 39.9656C59.5305 40.7407 59.3668 41.5178 59.1771 42.2788L59.215 42.2668Z" fill="#026670"/>
<path d="M55.4965 50.911L55.7841 51.0952C56.2095 50.4243 56.6109 49.7353 56.9843 49.0303L56.6828 48.8701C56.3173 49.5631 55.9179 50.2501 55.4965 50.911Z" fill="#026670"/>
<path d="M58.2104 23.5907C58.1825 23.5226 58.1525 23.4525 58.1246 23.3844C58.0966 23.3163 58.1246 23.3784 58.1206 23.3764C58.1166 23.3744 58.1206 23.3704 58.1186 23.3664C58.1146 23.3584 58.1126 23.3504 58.1086 23.3424C58.1046 23.3344 58.1086 23.3364 58.1066 23.3344V23.3304C58.1066 23.3304 58.1066 23.3264 58.1046 23.3244V23.3203C58.1046 23.3203 58.1046 23.3163 58.1026 23.3143C58.1026 23.3143 58.1026 23.3103 58.1006 23.3083V23.3043C58.1006 23.3003 58.0986 23.2983 58.0966 23.2943V23.2903C58.0966 23.2903 58.0966 23.2863 58.0946 23.2843V23.2803C58.0946 23.2803 58.0946 23.2763 58.0926 23.2743V23.2703C58.0926 23.2703 58.0906 23.2643 58.0886 23.2623C58.0866 23.2603 58.0826 23.2462 58.0806 23.2402C58.0806 23.2362 58.0786 23.2342 58.0766 23.2322C58.0766 23.2282 58.0747 23.2262 58.0727 23.2242C57.8855 22.7848 57.6877 22.3501 57.4795 21.9204C57.4795 21.9204 57.4775 21.9144 57.4755 21.9104C57.4755 21.9064 57.4735 21.9044 57.4715 21.9024C57.4675 21.8923 57.4616 21.8823 57.4576 21.8723C57.4576 21.8683 57.4556 21.8683 57.4536 21.8643V21.8623C57.4536 21.8603 57.4516 21.8563 57.4496 21.8543V21.8523C57.4496 21.8483 57.4476 21.8463 57.4456 21.8443C57.4456 21.8403 57.4436 21.8383 57.4416 21.8343V21.8323C57.4416 21.8303 57.4396 21.8282 57.4376 21.8242V21.8202C57.4376 21.8202 57.4356 21.8162 57.4336 21.8142V21.8102C57.4336 21.8102 57.4316 21.8062 57.4296 21.8042V21.8002C57.4296 21.7962 57.4276 21.7942 57.4256 21.7922V21.7882C57.4256 21.7882 57.4256 21.7842 57.4236 21.7822C57.4236 21.7822 57.4236 21.7782 57.4216 21.7782C57.4216 21.7782 57.4216 21.7762 57.4196 21.7742C57.4196 21.7742 57.4196 21.7702 57.4176 21.7682V21.7642C57.4176 21.7642 57.4176 21.7602 57.4156 21.7581V21.7541C57.4116 21.7481 57.4096 21.7401 57.4056 21.7341V21.7321C57.4056 21.7301 57.4056 21.7281 57.4036 21.7261V21.7241C57.4036 21.7221 57.4016 21.7201 57.3997 21.7181C57.3957 21.7101 57.3917 21.7021 57.3877 21.6961C57.3837 21.6901 57.3857 21.6901 57.3837 21.6881C57.3837 21.686 57.3817 21.682 57.3797 21.68C57.3377 21.5959 57.2978 21.5118 57.2539 21.4297L56.9503 21.5839C57.3058 22.2829 57.6373 23.0059 57.9349 23.7309L58.2504 23.6007L58.2104 23.5907Z" fill="#026670"/>
<path d="M59.6643 28.139V28.119C59.6643 28.111 59.6604 28.105 59.6604 28.0969V28.0729C59.6604 28.0689 59.6604 28.0669 59.6584 28.0629C59.6584 28.0589 59.6584 28.0569 59.6564 28.0529V28.0188C59.6564 28.0148 59.6564 28.0128 59.6544 28.0088V27.9728C59.6544 27.9688 59.6544 27.9668 59.6524 27.9628V27.9487C59.6524 27.9487 59.6524 27.9447 59.6504 27.9427V27.9387C59.6504 27.9387 59.6484 27.9347 59.6484 27.9327V27.9287C59.6484 27.9247 59.6484 27.9227 59.6464 27.9187V27.7885C59.6464 27.7885 59.6444 27.7825 59.6424 27.7785V27.7444C59.6424 27.7404 59.6424 27.7384 59.6404 27.7344V27.7004C59.6404 27.6984 59.6404 27.6944 59.6384 27.6924V27.6563C59.6384 27.6523 59.6384 27.6503 59.6364 27.6463C59.6364 27.6423 59.6364 27.6403 59.6344 27.6383V27.6043C59.6344 27.6002 59.6344 27.5982 59.6324 27.5942V27.5662C59.6324 27.5642 59.6324 27.5602 59.6304 27.5582C59.6304 27.5542 59.6304 27.5522 59.6284 27.5482V27.5121C59.6284 27.5081 59.6284 27.5061 59.6264 27.5021V27.4761C59.6264 27.4741 59.6264 27.4701 59.6244 27.4681C59.6244 27.4641 59.6244 27.4621 59.6224 27.458C59.6224 27.454 59.6224 27.452 59.6204 27.448V27.436C59.6204 27.432 59.6204 27.43 59.6184 27.428C59.6184 27.42 59.6144 27.414 59.6124 27.406C59.6124 27.402 59.6124 27.4 59.6104 27.398V27.3879H59.6084C59.6084 27.3799 59.6044 27.3739 59.6024 27.3659C59.6024 27.3619 59.6024 27.3599 59.6004 27.3559V27.3539C59.6004 27.3499 59.6004 27.3479 59.5984 27.3439C59.5984 27.3359 59.5944 27.3299 59.5925 27.3219C59.5925 27.3179 59.5925 27.3158 59.5905 27.3118C59.5905 27.3078 59.5905 27.3058 59.5885 27.3018C59.5865 27.2898 59.5825 27.2798 59.5805 27.2698C59.5805 27.2658 59.5805 27.2638 59.5785 27.2598C59.5765 27.2478 59.5725 27.2377 59.5705 27.2257C59.5705 27.2217 59.5705 27.2197 59.5685 27.2157C59.5665 27.2037 59.5625 27.1937 59.5605 27.1837C59.5605 27.1797 59.5605 27.1777 59.5585 27.1736C59.5086 26.9874 59.4567 26.8031 59.4027 26.6169C59.4027 26.6129 59.4007 26.6089 59.3987 26.6069C59.3947 26.5948 59.3928 26.5848 59.3888 26.5748C59.3888 26.5708 59.3888 26.5688 59.3868 26.5648C59.3828 26.5528 59.3808 26.5428 59.3768 26.5327C59.3768 26.5287 59.3768 26.5267 59.3748 26.5227C59.3748 26.5187 59.3748 26.5167 59.3728 26.5127C59.3708 26.5087 59.3688 26.4987 59.3668 26.4907C59.3668 26.4887 59.3668 26.4847 59.3648 26.4827V26.4807C59.3648 26.4767 59.3648 26.4767 59.3628 26.4727L59.3568 26.4506C59.3568 26.4486 59.3568 26.4446 59.3548 26.4426V26.4406C59.3548 26.4406 59.3548 26.4346 59.3528 26.4326V26.4306C59.3508 26.4226 59.3488 26.4186 59.3468 26.4106V26.3765C59.3468 26.3725 59.3468 26.3705 59.3448 26.3665V26.3385L59.3388 26.3164V26.3144C59.3388 26.3124 59.3388 26.3104 59.3368 26.3084C59.3348 26.3064 59.3368 26.3004 59.3348 26.2984C59.3308 26.2864 59.3288 26.2764 59.3248 26.2644C59.2869 26.1382 59.249 26.014 59.209 25.8918L58.8855 25.996C59.1231 26.743 59.3348 27.5101 59.5146 28.2732L59.8461 28.1951L59.6643 28.139Z" fill="#026670"/>
<path d="M60.1096 35.249C60.1036 36.0361 60.0657 36.8292 59.9978 37.6103L60.3373 37.6404V37.5362C60.3373 37.5242 60.3373 37.5122 60.3393 37.5002C60.3912 36.8753 60.4232 36.2444 60.4352 35.6095C60.4471 34.9746 60.4352 35.6015 60.4352 35.5995V35.251H60.0937L60.1096 35.249Z" fill="#026670"/>
<path d="M60.3773 32.8616V32.5772C60.3773 32.5772 60.3773 32.5592 60.3753 32.5492V32.5412C60.3433 32.1466 60.3034 31.7561 60.2575 31.3675C60.2115 30.979 60.2575 31.3615 60.2575 31.3595V31.3495C60.2575 31.3495 60.2555 31.3315 60.2535 31.3235V31.1773C60.2535 31.1692 60.2535 31.1632 60.2515 31.1552V31.1352C60.2235 30.9189 60.1935 30.7026 60.1616 30.4883L59.8241 30.5384C59.9399 31.3134 60.0278 32.1026 60.0817 32.8877L60.4212 32.8636L60.3773 32.8616Z" fill="#026670"/>
<path d="M56.0517 19.3326C55.9998 19.2465 55.9458 19.1604 55.8919 19.0763C55.8919 19.0743 55.8879 19.0703 55.8879 19.0683V19.0663C55.8879 19.0643 55.8839 19.0623 55.8839 19.0583C55.8839 19.0543 55.8799 19.0522 55.8779 19.0482C55.8779 19.0442 55.874 19.0422 55.872 19.0402C55.872 19.0402 55.872 19.0382 55.87 19.0362C55.87 19.0362 55.868 19.0322 55.866 19.0302C55.866 19.0302 55.866 19.0282 55.864 19.0262C55.864 19.0262 55.864 19.0242 55.862 19.0222C55.862 19.0222 55.862 19.0202 55.86 19.0182C55.86 19.0182 55.86 19.0142 55.858 19.0142C55.852 19.0042 55.846 18.9962 55.84 18.9862C55.84 18.9842 55.838 18.9821 55.836 18.9781C55.4845 18.4214 55.1171 17.8786 54.7316 17.3499L54.4561 17.5521C54.9174 18.187 55.3587 18.848 55.7681 19.5149L56.0577 19.3366L56.0517 19.3326Z" fill="#026670"/>
<path d="M36.6284 64.0175L36.6983 64.352H36.7183C36.7223 64.352 36.7243 64.352 36.7283 64.35H36.7682C36.7722 64.35 36.7742 64.35 36.7782 64.348H36.8042L36.8261 64.342C36.8301 64.342 36.8321 64.342 36.8361 64.34C36.8401 64.34 36.8421 64.34 36.8461 64.338C36.8581 64.336 36.8681 64.334 36.8801 64.33C36.884 64.33 36.888 64.33 36.89 64.328C37.605 64.1737 38.3079 63.9935 39.0029 63.7872L38.9071 63.4587C38.1562 63.6811 37.3873 63.8733 36.6224 64.0335L36.6284 64.0175Z" fill="#026670"/>
<path d="M52.6567 54.6805L52.9103 54.9068C52.9942 54.8126 53.0761 54.7185 53.158 54.6244C53.16 54.6224 53.162 54.6204 53.164 54.6164C53.166 54.6144 53.168 54.6124 53.17 54.6084C53.174 54.6023 53.1799 54.5983 53.1839 54.5923C53.1859 54.5903 53.1879 54.5883 53.1899 54.5843L53.1959 54.5783C53.1979 54.5763 53.1999 54.5743 53.2019 54.5703C53.2059 54.5643 53.2119 54.5603 53.2159 54.5543L53.2219 54.5483V54.5463L53.2279 54.5403V54.5383C53.2279 54.5363 53.2319 54.5343 53.2339 54.5322C53.2379 54.5264 53.2426 54.5211 53.2478 54.5162L53.2498 54.5142C53.2498 54.5142 53.2538 54.5102 53.2538 54.5082L53.2558 54.5062C53.2558 54.5062 53.2578 54.5022 53.2598 54.5022C53.2598 54.5022 53.2598 54.5002 53.2618 54.4982C53.2618 54.4982 53.2638 54.4942 53.2658 54.4922L53.2678 54.4902C53.2698 54.4882 53.2718 54.4862 53.2738 54.4822C53.2738 54.4802 53.2778 54.4782 53.2798 54.4762L53.2818 54.4742C53.2818 54.4742 53.2858 54.4702 53.2858 54.4682C53.2858 54.4682 53.2858 54.4662 53.2878 54.4642C53.2878 54.4642 53.2898 54.4601 53.2918 54.4601C53.2918 54.4601 53.2918 54.4581 53.2938 54.4561C53.2938 54.4541 53.2958 54.4541 53.2978 54.4501L53.2998 54.4481C53.3018 54.4461 53.3038 54.4441 53.3058 54.4401L53.3098 54.4361C53.3098 54.4361 53.3118 54.4341 53.3118 54.4321C53.3118 54.4321 53.3137 54.4281 53.3157 54.4281C53.3157 54.4281 53.3157 54.4261 53.3177 54.4241L53.3217 54.4201L53.3237 54.4161L53.3277 54.4121C53.3277 54.4121 53.3297 54.4101 53.3297 54.4081C53.3337 54.4021 53.3397 54.3961 53.3437 54.392V54.39C53.3437 54.39 53.3457 54.386 53.3477 54.386L53.3497 54.384C53.3497 54.384 53.3517 54.38 53.3537 54.378V54.376C53.3537 54.376 53.3577 54.372 53.3577 54.37C53.3577 54.368 53.3677 54.356 53.3737 54.35C53.3737 54.35 53.3777 54.346 53.3777 54.344C53.3777 54.344 53.3816 54.34 53.3816 54.338C53.3816 54.336 53.3856 54.334 53.3856 54.332C53.3856 54.33 53.3976 54.3179 53.4036 54.3119C53.4036 54.3119 53.4076 54.3079 53.4076 54.3059C53.4076 54.3039 53.4116 54.2999 53.4116 54.2979C53.4196 54.2879 53.4276 54.2799 53.4336 54.2699C53.4336 54.2679 53.4376 54.2659 53.4396 54.2639C53.4416 54.2619 53.4435 54.2579 53.4435 54.2559C53.4515 54.2458 53.4595 54.2378 53.4675 54.2278C53.4755 54.2178 53.4715 54.2238 53.4735 54.2218L53.5035 54.1858C53.5035 54.1838 53.5075 54.1818 53.5095 54.1797L53.5394 54.1437C53.5394 54.1417 53.5434 54.1397 53.5454 54.1377C53.5674 54.1117 53.5893 54.0836 53.6093 54.0576C53.6293 54.0315 53.6133 54.0516 53.6153 54.0496L53.6373 54.0215C53.6373 54.0215 53.6413 54.0175 53.6413 54.0155C53.6413 54.0155 53.6453 54.0115 53.6453 54.0095L53.6672 53.9815C53.6672 53.9815 53.6712 53.9775 53.6732 53.9735C53.6752 53.9695 53.6772 53.9675 53.6772 53.9655L53.6992 53.9374C53.6992 53.9374 53.7032 53.9334 53.7032 53.9314C53.7032 53.9294 53.7072 53.9254 53.7072 53.9234L53.7291 53.8954C53.7291 53.8934 53.7331 53.8913 53.7331 53.8893C53.7331 53.8873 53.7371 53.8833 53.7371 53.8813C53.7451 53.8733 53.7511 53.8633 53.7591 53.8553C53.7591 53.8553 53.7611 53.8513 53.7631 53.8493C53.7631 53.8473 53.7671 53.8453 53.7671 53.8433L53.789 53.8152C53.789 53.8152 53.791 53.8112 53.793 53.8092V53.8072C53.793 53.8072 53.795 53.8032 53.797 53.8012V53.7992C53.803 53.7932 53.807 53.7872 53.813 53.7792C53.819 53.7712 53.817 53.7752 53.817 53.7732V53.7712C53.817 53.7712 53.819 53.7672 53.821 53.7652C53.821 53.7632 53.825 53.7612 53.825 53.7592C53.825 53.7572 53.835 53.7451 53.841 53.7391V53.7371C53.841 53.7371 53.843 53.7331 53.845 53.7311C53.845 53.7311 53.845 53.7291 53.847 53.7291C53.847 53.7291 53.849 53.7251 53.8509 53.7231L53.8529 53.7211C53.8529 53.7211 53.8549 53.7171 53.8569 53.7151C53.8569 53.7151 53.8569 53.7131 53.8589 53.7131C53.8629 53.7071 53.8689 53.7011 53.8729 53.6951C53.8729 53.6951 53.8749 53.6911 53.8769 53.6891C53.8769 53.6891 53.8769 53.6871 53.8789 53.6871C53.8789 53.6871 53.8809 53.6831 53.8829 53.6831C53.8829 53.6831 53.8829 53.6811 53.8849 53.6811C53.8849 53.6811 53.8869 53.677 53.8889 53.675V53.673C53.8929 53.669 53.8949 53.665 53.8989 53.661C53.8989 53.661 53.9009 53.657 53.9029 53.655C53.9029 53.655 53.9029 53.653 53.9049 53.653C53.9049 53.653 53.9069 53.649 53.9089 53.649C53.9089 53.649 53.9089 53.647 53.9109 53.645L53.9149 53.641C53.9169 53.639 53.9149 53.639 53.9169 53.637L53.9208 53.633L53.9228 53.629C53.9248 53.627 53.9268 53.623 53.9288 53.621L53.9308 53.619L53.9348 53.615C53.9348 53.615 53.9368 53.613 53.9368 53.611L53.9408 53.6069C53.9408 53.6069 53.9408 53.6049 53.9428 53.6029L53.9468 53.5989C53.9468 53.5989 53.9488 53.5969 53.9488 53.5949L53.9528 53.5909C53.9528 53.5909 53.9548 53.5869 53.9568 53.5869C53.9568 53.5849 53.9608 53.5829 53.9608 53.5809C53.9608 53.5789 53.9628 53.5789 53.9648 53.5749L53.9688 53.5709C53.9688 53.5709 53.9688 53.5689 53.9728 53.5669C53.9768 53.5649 53.9748 53.5649 53.9768 53.5629C53.9788 53.5609 53.9768 53.5629 53.9788 53.5589C53.9788 53.5589 53.9808 53.5549 53.9828 53.5549C53.9828 53.5549 53.9828 53.5529 53.9848 53.5509L53.9887 53.5469L53.9927 53.5429C53.9927 53.5409 53.9967 53.5388 53.9987 53.5348C53.9987 53.5348 53.9987 53.5328 54.0027 53.5308L54.0067 53.5268C54.0067 53.5268 54.0067 53.5248 54.0107 53.5228L54.0147 53.5188C54.0147 53.5188 54.0147 53.5168 54.0187 53.5148L54.0227 53.5108L54.0267 53.5068C54.0267 53.5068 54.0267 53.5048 54.0287 53.5028C54.0287 53.5008 54.0307 53.5008 54.0327 53.4968C54.0327 53.4948 54.0367 53.4928 54.0367 53.4908L54.0407 53.4868L54.0447 53.4828C54.0447 53.4828 54.0447 53.4808 54.0487 53.4788L54.0527 53.4748L54.0566 53.4708C54.0566 53.4708 54.0566 53.4688 54.0586 53.4667C54.0586 53.4667 54.0606 53.4627 54.0626 53.4607L54.0646 53.4587C54.0646 53.4567 54.0686 53.4547 54.0706 53.4527L54.0746 53.4487C54.0746 53.4467 54.0746 53.4467 54.0786 53.4447C54.0786 53.4447 54.0786 53.4427 54.0806 53.4407C54.0806 53.4407 54.0826 53.4367 54.0846 53.4367C54.0846 53.4367 54.0846 53.4347 54.0866 53.4327C54.0866 53.4327 54.0886 53.4287 54.0906 53.4287C54.0906 53.4287 54.0906 53.4267 54.0926 53.4247L54.0966 53.4207C54.0966 53.4207 54.0986 53.4187 54.0986 53.4167C54.1006 53.4147 54.1026 53.4127 54.1046 53.4087L54.1066 53.4067C54.1066 53.4047 54.1086 53.4027 54.1106 53.4007C54.1106 53.4007 54.1106 53.3987 54.1126 53.3966C54.1126 53.3966 54.1146 53.3926 54.1166 53.3926C54.1166 53.3926 54.1166 53.3906 54.1186 53.3886L54.1225 53.3846L54.1265 53.3806C54.1265 53.3806 54.1285 53.3766 54.1305 53.3746L54.1325 53.3726C54.1345 53.3706 54.1365 53.3686 54.1385 53.3646C54.1385 53.3646 54.1385 53.3626 54.1405 53.3606C54.1405 53.3606 54.1425 53.3566 54.1445 53.3546C54.1445 53.3546 54.1445 53.3526 54.1465 53.3506C54.1465 53.3506 54.1485 53.3466 54.1505 53.3466C54.1505 53.3466 54.1505 53.3446 54.1525 53.3426C54.1525 53.3426 54.1545 53.3386 54.1565 53.3366L54.1585 53.3346C54.1585 53.3326 54.1605 53.3306 54.1625 53.3286C54.1645 53.3266 54.1665 53.3205 54.1685 53.3185C54.1685 53.3185 54.1685 53.3165 54.1705 53.3145C54.1705 53.3145 54.1725 53.3105 54.1745 53.3085C54.1745 53.3085 54.1745 53.3065 54.1765 53.3045C54.1765 53.3045 54.1785 53.3005 54.1805 53.3005C54.1805 53.3005 54.1805 53.2985 54.1825 53.2965C54.1825 53.2965 54.1845 53.2925 54.1864 53.2925C54.1864 53.2925 54.1865 53.2905 54.1884 53.2885C54.1884 53.2865 54.1904 53.2845 54.1924 53.2825V53.2805C54.1944 53.2785 54.1964 53.2765 54.1984 53.2725L54.2024 53.2685C54.2024 53.2685 54.2044 53.2645 54.2064 53.2645C54.2064 53.2645 54.2064 53.2625 54.2084 53.2605L54.2124 53.2565C54.2124 53.2565 54.2124 53.2545 54.2144 53.2525C54.2144 53.2525 54.2164 53.2484 54.2184 53.2484C54.2184 53.2484 54.2184 53.2464 54.2204 53.2444C54.2204 53.2424 54.2204 53.2424 54.2244 53.2404C54.2244 53.2404 54.2264 53.2364 54.2284 53.2344C54.2284 53.2324 54.2304 53.2304 54.2324 53.2284C54.2324 53.2284 54.2324 53.2264 54.2344 53.2244C54.2344 53.2244 54.2364 53.2204 54.2384 53.2184C54.2384 53.2184 54.2384 53.2164 54.2404 53.2144C54.2404 53.2144 54.2424 53.2104 54.2444 53.2104C54.2444 53.2104 54.2444 53.2084 54.2464 53.2064L54.2504 53.2024C54.2504 53.2024 54.2504 53.2004 54.2544 53.1984C54.2544 53.1964 54.2563 53.1944 54.2583 53.1924C54.2583 53.1924 54.2583 53.1904 54.2603 53.1884C54.2603 53.1864 54.2643 53.1844 54.2643 53.1824C54.2643 53.1824 54.2643 53.1803 54.2663 53.1783L54.2703 53.1743C54.2703 53.1743 54.2703 53.1723 54.2723 53.1703C54.2723 53.1703 54.2723 53.1683 54.2763 53.1663C54.2763 53.1663 54.2763 53.1643 54.2783 53.1623C54.2783 53.1623 54.2803 53.1583 54.2823 53.1583C54.2823 53.1583 54.2823 53.1563 54.2843 53.1543C54.2843 53.1523 54.2863 53.1503 54.2883 53.1483L54.2923 53.1443C54.2923 53.1443 54.2943 53.1403 54.2963 53.1383C54.2963 53.1383 54.2963 53.1363 54.2983 53.1343C54.2983 53.1343 54.2983 53.1323 54.3003 53.1303C54.3003 53.1303 54.3023 53.1263 54.3043 53.1263L54.3063 53.1223C54.3083 53.1183 54.3083 53.1203 54.3103 53.1183C54.3103 53.1183 54.3103 53.1163 54.3143 53.1143C54.3143 53.1143 54.3143 53.1122 54.3163 53.1102C54.3163 53.1082 54.3203 53.1062 54.3203 53.1042L54.0487 52.8979C53.5774 53.5248 53.0741 54.1397 52.5549 54.7265L52.6567 54.6805Z" fill="#026670"/>
<path d="M45.3915 60.6428L45.5632 60.9372C45.8528 60.767 46.1403 60.5948 46.4239 60.4145C46.7075 60.2343 46.4439 60.4025 46.4539 60.3945C46.4639 60.3865 46.4579 60.3905 46.4599 60.3905H46.4619C46.4619 60.3905 46.4659 60.3885 46.4679 60.3865H46.4699C46.4699 60.3865 46.4739 60.3845 46.4759 60.3825H46.4778C46.4838 60.3785 46.4898 60.3744 46.4978 60.3704C46.4978 60.3704 46.4998 60.3704 46.5018 60.3684C46.5018 60.3684 46.5058 60.3664 46.5058 60.3644C46.5058 60.3644 46.5078 60.3644 46.5098 60.3624C46.5098 60.3624 46.5138 60.3624 46.5138 60.3604C46.5138 60.3604 46.5158 60.3604 46.5178 60.3584C46.5178 60.3584 46.5198 60.3584 46.5218 60.3564C46.5238 60.3564 46.5258 60.3544 46.5278 60.3524H46.5298C46.5338 60.3504 46.5358 60.3484 46.5378 60.3464H46.5398C46.5418 60.3464 46.5438 60.3444 46.5457 60.3424H46.5477C46.5477 60.3424 46.5517 60.3384 46.5537 60.3384H46.5557L46.5637 60.3344L46.5817 60.3224C46.5857 60.3204 46.5877 60.3184 46.5897 60.3164C46.5917 60.3144 46.5957 60.3124 46.5977 60.3104C46.8693 60.1361 47.1389 59.9579 47.4045 59.7756C47.4145 59.7696 47.4224 59.7636 47.4324 59.7576C47.4344 59.7556 47.4384 59.7536 47.4404 59.7516C47.4424 59.7516 47.4444 59.7476 47.4484 59.7476C47.4504 59.7476 47.4524 59.7436 47.4564 59.7416C47.4584 59.7396 47.4624 59.7376 47.4644 59.7356C47.4644 59.7356 47.4684 59.7315 47.4704 59.7315C47.4704 59.7315 47.4724 59.7315 47.4744 59.7295C47.4744 59.7295 47.4764 59.7295 47.4784 59.7255C47.4784 59.7255 47.4804 59.7255 47.4824 59.7235C47.4824 59.7235 47.4844 59.7235 47.4864 59.7215C47.4864 59.7215 47.4903 59.7195 47.4903 59.7175C47.4903 59.7175 47.4923 59.7175 47.4943 59.7155L47.5143 59.7015L47.5203 59.6955C47.5203 59.6955 47.5403 59.6815 47.5503 59.6735L47.3565 59.3931C46.7135 59.8397 46.0445 60.2683 45.3675 60.6609L45.3915 60.6428Z" fill="#026670"/>
<path d="M49.8649 12.1064C49.8349 12.0804 49.8029 12.0544 49.773 12.0283C49.743 12.0023 49.769 12.0243 49.767 12.0243H49.765C49.765 12.0243 49.761 12.0223 49.759 12.0203L49.757 12.0183C49.757 12.0183 49.753 12.0163 49.753 12.0143L49.751 12.0123C49.749 12.0103 49.745 12.0083 49.743 12.0043C49.743 12.0043 49.739 12.0023 49.739 12.0003L49.735 11.9963L49.731 11.9923L49.7271 11.9883C49.7271 11.9883 49.7231 11.9863 49.7231 11.9843C49.7231 11.9843 49.7211 11.9843 49.7191 11.9823C49.7191 11.9823 49.7151 11.9803 49.7151 11.9783H49.7131C49.7131 11.9783 49.7091 11.9723 49.7051 11.9682C49.7031 11.9682 49.7011 11.9642 49.6991 11.9622L49.6931 11.9562C49.6908 11.9538 49.6881 11.9517 49.6851 11.9502L49.6512 11.9222C49.116 11.4756 48.5648 11.049 47.9976 10.6404L47.7979 10.9168C48.433 11.3754 49.058 11.8641 49.6552 12.3708L49.8748 12.1104L49.8649 12.1064Z" fill="#026670"/>
<path d="M41.1457 62.6836L41.2676 63.0021C42.0105 62.7157 42.7434 62.3992 43.4563 62.0567L43.3085 61.7483C42.6016 62.0868 41.8747 62.4012 41.1437 62.6836H41.1457Z" fill="#026670"/>
<path d="M45.9965 9.3187C45.7769 9.18451 45.5552 9.05433 45.3315 8.92615C45.1079 8.79797 45.3275 8.92214 45.3235 8.92214L45.2936 8.90412H45.2916C45.2916 8.90412 45.2876 8.90212 45.2856 8.90011C45.2836 8.90011 45.2816 8.89811 45.2796 8.89611C45.2736 8.8921 45.2676 8.8881 45.2596 8.88409C45.2596 8.88409 45.2556 8.88409 45.2556 8.88209C45.2556 8.88209 45.2536 8.88209 45.2516 8.88009C45.2516 8.88009 45.2497 8.88009 45.2477 8.87808C45.2477 8.87808 45.2457 8.87808 45.2437 8.87608C45.2437 8.87608 45.2417 8.87608 45.2397 8.87408C45.2397 8.87408 45.2377 8.87408 45.2357 8.87207C45.2357 8.87207 45.2317 8.87007 45.2297 8.86807C45.2297 8.86807 45.2277 8.86807 45.2257 8.86607C45.2217 8.86607 45.2217 8.86406 45.2177 8.86206H45.2137C45.2137 8.86206 45.2117 8.85805 45.2097 8.85605C45.2097 8.85605 45.2057 8.85605 45.2057 8.85405C45.2057 8.85405 45.2037 8.85405 45.2017 8.85205C45.2017 8.85205 45.1997 8.85205 45.1977 8.85004C45.1977 8.85004 45.1937 8.85004 45.1937 8.84804C45.1937 8.84804 45.1917 8.84804 45.1897 8.84604C45.1877 8.84604 45.1857 8.84403 45.1818 8.84203H45.1798C45.1758 8.84203 45.1738 8.84003 45.1718 8.83803H45.1698C45.1698 8.83803 45.1658 8.83602 45.1638 8.83402H45.1618C45.1618 8.83402 45.1578 8.83202 45.1558 8.83001H45.1538C45.1498 8.83001 45.1498 8.82801 45.1458 8.82601C45.1418 8.82601 45.1398 8.822 45.1358 8.82L45.1278 8.816C45.1238 8.816 45.1238 8.81399 45.1198 8.81199C45.1158 8.81199 45.1158 8.80999 45.1119 8.80798C45.1079 8.80598 45.0919 8.79597 45.0819 8.79196C45.0779 8.79196 45.0759 8.78796 45.0719 8.78595C44.6965 8.57566 44.317 8.37538 43.9296 8.18311L43.7778 8.48954C44.4768 8.84003 45.1718 9.22457 45.8408 9.63114L46.0165 9.33873L45.9965 9.3187Z" fill="#026670"/>
<path d="M53.2439 15.4734C52.7266 14.8685 52.1854 14.2857 51.6203 13.7229L51.3806 13.9652C51.9358 14.518 52.475 15.1008 52.9862 15.6957L53.2439 15.4734Z" fill="#026670"/>
<path d="M49.2617 57.951L49.4774 58.2154C50.0925 57.7107 50.6876 57.1799 51.2608 56.6292L51.0251 56.3828C50.4599 56.9256 49.8668 57.4543 49.2617 57.951Z" fill="#026670"/>
<path d="M27.2104 64.8006L27.482 64.8307C27.494 64.8307 27.504 64.8327 27.516 64.8347H27.5259C27.5339 64.8347 27.5419 64.8347 27.5479 64.8367H28.2948C28.7102 64.8667 29.1296 64.8887 29.5489 64.9028L29.5589 64.5623C28.7761 64.5382 27.9853 64.4802 27.2084 64.394L27.1705 64.7325L27.2104 64.8006Z" fill="#026670"/>
<path d="M31.9574 64.6104L31.9734 64.9509L32.3049 64.9328C32.3169 64.9328 32.3269 64.9328 32.3388 64.9308H32.4407C32.8701 64.9048 33.2974 64.8687 33.7208 64.8227C34.1442 64.7766 33.7268 64.8227 33.7288 64.8227C33.7368 64.8227 33.7448 64.8227 33.7547 64.8207H33.8186C33.8266 64.8207 33.8326 64.8207 33.8406 64.8187H33.8506C34.0144 64.8007 34.1781 64.7806 34.3419 64.7606L34.2999 64.4221C33.5251 64.5203 32.7363 64.5884 31.9514 64.6264L31.9574 64.6104Z" fill="#026670"/>
</svg>
